<?xml version="1.0" encoding="utf-8"?>
<!-- Generator: Adobe Illustrator 21.0.2, SVG Export Plug-In . SVG Version: 6.00 Build 0)  -->
<!DOCTYPE svg PUBLIC "-//W3C//DTD SVG 1.1//EN" "http://www.w3.org/Graphics/SVG/1.1/DTD/svg11.dtd">
<svg version="1.1" id="Laag_1" xmlns="http://www.w3.org/2000/svg" xmlns:xlink="http://www.w3.org/1999/xlink" x="0px" y="0px"
	 viewBox="0 0 199 184" style="enable-background:new 0 0 199 184;" xml:space="preserve">
<style type="text/css">
	.st0{fill:#FFB511;}
	.st1{fill:#191941;}
</style>
<path class="st0" d="M163.7,86.2c-19.5,0-35.3,15.8-35.3,35.3c0,3.9,0.4,7.7,1.8,11.1c4.5,11,12.3,18.7,31.4,37.2
	c1.2,1.2,3.2,1.2,4.5,0c14.4-13.8,27.6-26.9,31.3-37c1.3-3.5,1.9-7.4,1.9-11.3C199,102,183.2,86.2,163.7,86.2z M164.4,135.1
	c-8.6,0.4-15.6-6.6-15.2-15.2c0.4-7.3,6.3-13.3,13.7-13.7c8.6-0.4,15.6,6.6,15.2,15.2C177.7,128.8,171.7,134.7,164.4,135.1z"/>
<path class="st1" d="M76.9,0C34.5,0,0,34.5,0,76.9c0,8.4,0.8,16.7,3.8,24.1c9.7,23.9,26.8,40.8,68.3,81c2.7,2.6,7,2.6,9.7,0
	c31.3-30.1,60.1-58.5,68.1-80.4c2.8-7.7,4-16,4-24.7C153.9,34.5,119.4,0,76.9,0z M78.6,106.5c-18.7,0.9-34-14.4-33-33
	c0.8-16,13.8-29,29.8-29.8c18.7-0.9,34,14.4,33,33C107.5,92.7,94.6,105.7,78.6,106.5z"/>
</svg>
